<mxfile host="app.diagrams.net" agent="Mozilla/5.0 (Windows NT 10.0; Win64; x64) AppleWebKit/537.36 (KHTML, like Gecko) Chrome/132.0.0.0 Safari/537.36" version="26.0.6">
  <diagram name="Page-1" id="Ugxl7RUPkdimh2O98C3A">
    <mxGraphModel dx="1232" dy="1131" grid="1" gridSize="10" guides="1" tooltips="1" connect="1" arrows="1" fold="1" page="1" pageScale="1" pageWidth="850" pageHeight="1100" math="0" shadow="0">
      <root>
        <mxCell id="0" />
        <mxCell id="1" parent="0" />
        <mxCell id="EcMjzVJzOCbl6YCCKHsc-6" value="" style="group;fillColor=none;" vertex="1" connectable="0" parent="1">
          <mxGeometry x="90" y="30" width="120" height="120" as="geometry" />
        </mxCell>
        <mxCell id="EcMjzVJzOCbl6YCCKHsc-1" value="User" style="shape=umlActor;verticalLabelPosition=bottom;verticalAlign=top;html=1;outlineConnect=0;" vertex="1" parent="EcMjzVJzOCbl6YCCKHsc-6">
          <mxGeometry y="60" width="30" height="60" as="geometry" />
        </mxCell>
        <mxCell id="EcMjzVJzOCbl6YCCKHsc-4" value="query&lt;div&gt;&lt;br&gt;&lt;/div&gt;" style="whiteSpace=wrap;html=1;shape=mxgraph.basic.cloud_callout" vertex="1" parent="EcMjzVJzOCbl6YCCKHsc-6">
          <mxGeometry x="30" width="90" height="60" as="geometry" />
        </mxCell>
        <mxCell id="EcMjzVJzOCbl6YCCKHsc-10" value="HTTP&lt;div&gt;request&lt;/div&gt;" style="edgeStyle=orthogonalEdgeStyle;rounded=0;orthogonalLoop=1;jettySize=auto;html=1;entryX=0.5;entryY=0;entryDx=0;entryDy=0;strokeWidth=2;fillColor=#a20025;strokeColor=#6F0000;exitX=1;exitY=1;exitDx=0;exitDy=0;exitPerimeter=0;" edge="1" parent="1" source="EcMjzVJzOCbl6YCCKHsc-1" target="EcMjzVJzOCbl6YCCKHsc-13">
          <mxGeometry relative="1" as="geometry">
            <mxPoint x="167" y="260" as="targetPoint" />
            <Array as="points">
              <mxPoint x="168" y="150" />
              <mxPoint x="168" y="205" />
            </Array>
          </mxGeometry>
        </mxCell>
        <mxCell id="EcMjzVJzOCbl6YCCKHsc-30" value="language" style="edgeStyle=orthogonalEdgeStyle;rounded=0;orthogonalLoop=1;jettySize=auto;html=1;exitX=0;exitY=1;exitDx=0;exitDy=-15;exitPerimeter=0;entryX=1;entryY=0.75;entryDx=0;entryDy=0;fillColor=#ffe6cc;strokeColor=#d79b00;strokeWidth=2;" edge="1" parent="1" source="EcMjzVJzOCbl6YCCKHsc-11" target="EcMjzVJzOCbl6YCCKHsc-19">
          <mxGeometry relative="1" as="geometry">
            <Array as="points">
              <mxPoint x="320" y="530" />
              <mxPoint x="320" y="478" />
            </Array>
          </mxGeometry>
        </mxCell>
        <mxCell id="EcMjzVJzOCbl6YCCKHsc-11" value="Vector&lt;br&gt;DB" style="shape=cylinder3;whiteSpace=wrap;html=1;boundedLbl=1;backgroundOutline=1;size=15;fillColor=#ffe6cc;strokeColor=#d79b00;" vertex="1" parent="1">
          <mxGeometry x="427.5" y="470" width="95" height="75" as="geometry" />
        </mxCell>
        <mxCell id="EcMjzVJzOCbl6YCCKHsc-18" style="edgeStyle=orthogonalEdgeStyle;rounded=0;orthogonalLoop=1;jettySize=auto;html=1;exitX=0.5;exitY=1;exitDx=0;exitDy=0;entryX=0.5;entryY=0;entryDx=0;entryDy=0;" edge="1" parent="1" source="EcMjzVJzOCbl6YCCKHsc-13" target="EcMjzVJzOCbl6YCCKHsc-14">
          <mxGeometry relative="1" as="geometry" />
        </mxCell>
        <mxCell id="EcMjzVJzOCbl6YCCKHsc-13" value="&lt;div&gt;Backend / Chat&lt;/div&gt;" style="rounded=0;whiteSpace=wrap;html=1;fillColor=#f5f5f5;fontColor=#333333;strokeColor=#666666;" vertex="1" parent="1">
          <mxGeometry x="70" y="260" width="195" height="90" as="geometry" />
        </mxCell>
        <mxCell id="EcMjzVJzOCbl6YCCKHsc-16" value="language" style="edgeStyle=orthogonalEdgeStyle;rounded=0;orthogonalLoop=1;jettySize=auto;html=1;entryX=0;entryY=0.25;entryDx=0;entryDy=0;exitX=1;exitY=0.25;exitDx=0;exitDy=0;fillColor=#f5f5f5;strokeColor=#666666;strokeWidth=2;" edge="1" parent="1" source="EcMjzVJzOCbl6YCCKHsc-14" target="EcMjzVJzOCbl6YCCKHsc-15">
          <mxGeometry x="0.0007" relative="1" as="geometry">
            <Array as="points">
              <mxPoint x="320" y="382" />
              <mxPoint x="320" y="342" />
            </Array>
            <mxPoint as="offset" />
          </mxGeometry>
        </mxCell>
        <mxCell id="EcMjzVJzOCbl6YCCKHsc-20" value="" style="edgeStyle=orthogonalEdgeStyle;rounded=0;orthogonalLoop=1;jettySize=auto;html=1;" edge="1" parent="1" source="EcMjzVJzOCbl6YCCKHsc-14" target="EcMjzVJzOCbl6YCCKHsc-19">
          <mxGeometry relative="1" as="geometry" />
        </mxCell>
        <mxCell id="EcMjzVJzOCbl6YCCKHsc-14" value="1. Make embedding from query" style="rounded=1;whiteSpace=wrap;html=1;fillColor=#f5f5f5;fontColor=#333333;strokeColor=#666666;" vertex="1" parent="1">
          <mxGeometry x="72.5" y="370" width="190" height="50" as="geometry" />
        </mxCell>
        <mxCell id="EcMjzVJzOCbl6YCCKHsc-17" value="vector" style="edgeStyle=orthogonalEdgeStyle;rounded=0;orthogonalLoop=1;jettySize=auto;html=1;exitX=0;exitY=0.75;exitDx=0;exitDy=0;entryX=1;entryY=0.75;entryDx=0;entryDy=0;fillColor=#dae8fc;strokeColor=#6c8ebf;strokeWidth=2;" edge="1" parent="1" source="EcMjzVJzOCbl6YCCKHsc-15" target="EcMjzVJzOCbl6YCCKHsc-14">
          <mxGeometry relative="1" as="geometry">
            <Array as="points">
              <mxPoint x="360" y="378" />
              <mxPoint x="360" y="408" />
            </Array>
          </mxGeometry>
        </mxCell>
        <mxCell id="EcMjzVJzOCbl6YCCKHsc-44" value="vectors" style="edgeStyle=orthogonalEdgeStyle;rounded=0;orthogonalLoop=1;jettySize=auto;html=1;exitX=1;exitY=0.75;exitDx=0;exitDy=0;entryX=0;entryY=0.75;entryDx=0;entryDy=0;fillColor=#dae8fc;strokeColor=#6c8ebf;strokeWidth=2;" edge="1" parent="1" source="EcMjzVJzOCbl6YCCKHsc-15" target="EcMjzVJzOCbl6YCCKHsc-40">
          <mxGeometry x="0.2088" relative="1" as="geometry">
            <mxPoint as="offset" />
          </mxGeometry>
        </mxCell>
        <mxCell id="EcMjzVJzOCbl6YCCKHsc-15" value="Embedding model&lt;br&gt;text-embedding-3-large" style="shape=hexagon;perimeter=hexagonPerimeter2;whiteSpace=wrap;html=1;fixedSize=1;fillColor=#dae8fc;strokeColor=#6c8ebf;" vertex="1" parent="1">
          <mxGeometry x="380" y="320" width="190" height="80" as="geometry" />
        </mxCell>
        <mxCell id="EcMjzVJzOCbl6YCCKHsc-24" value="" style="edgeStyle=orthogonalEdgeStyle;rounded=0;orthogonalLoop=1;jettySize=auto;html=1;" edge="1" parent="1" source="EcMjzVJzOCbl6YCCKHsc-19" target="EcMjzVJzOCbl6YCCKHsc-23">
          <mxGeometry relative="1" as="geometry" />
        </mxCell>
        <mxCell id="EcMjzVJzOCbl6YCCKHsc-19" value="2. Search for similar vectors in DB" style="rounded=1;whiteSpace=wrap;html=1;fillColor=#f5f5f5;fontColor=#333333;strokeColor=#666666;" vertex="1" parent="1">
          <mxGeometry x="72.5" y="440" width="190" height="50" as="geometry" />
        </mxCell>
        <mxCell id="EcMjzVJzOCbl6YCCKHsc-21" value="vector" style="edgeStyle=orthogonalEdgeStyle;rounded=0;orthogonalLoop=1;jettySize=auto;html=1;exitX=1;exitY=0.25;exitDx=0;exitDy=0;entryX=0;entryY=0;entryDx=0;entryDy=26.25;entryPerimeter=0;fillColor=#f5f5f5;strokeColor=#666666;strokeWidth=2;" edge="1" parent="1" source="EcMjzVJzOCbl6YCCKHsc-19" target="EcMjzVJzOCbl6YCCKHsc-11">
          <mxGeometry relative="1" as="geometry" />
        </mxCell>
        <mxCell id="EcMjzVJzOCbl6YCCKHsc-26" value="" style="edgeStyle=orthogonalEdgeStyle;rounded=0;orthogonalLoop=1;jettySize=auto;html=1;" edge="1" parent="1" source="EcMjzVJzOCbl6YCCKHsc-23" target="EcMjzVJzOCbl6YCCKHsc-25">
          <mxGeometry relative="1" as="geometry" />
        </mxCell>
        <mxCell id="EcMjzVJzOCbl6YCCKHsc-23" value="3. Insert user query + context to prompt template" style="rounded=1;whiteSpace=wrap;html=1;fillColor=#f5f5f5;fontColor=#333333;strokeColor=#666666;" vertex="1" parent="1">
          <mxGeometry x="72.5" y="512.5" width="190" height="50" as="geometry" />
        </mxCell>
        <mxCell id="EcMjzVJzOCbl6YCCKHsc-28" value="language" style="edgeStyle=orthogonalEdgeStyle;rounded=0;orthogonalLoop=1;jettySize=auto;html=1;exitX=1;exitY=0.25;exitDx=0;exitDy=0;entryX=0;entryY=0.25;entryDx=0;entryDy=0;fillColor=#f5f5f5;strokeColor=#666666;strokeWidth=2;" edge="1" parent="1" source="EcMjzVJzOCbl6YCCKHsc-25" target="EcMjzVJzOCbl6YCCKHsc-27">
          <mxGeometry relative="1" as="geometry">
            <Array as="points">
              <mxPoint x="370" y="598" />
              <mxPoint x="370" y="647" />
            </Array>
          </mxGeometry>
        </mxCell>
        <mxCell id="EcMjzVJzOCbl6YCCKHsc-32" value="" style="edgeStyle=orthogonalEdgeStyle;rounded=0;orthogonalLoop=1;jettySize=auto;html=1;" edge="1" parent="1" source="EcMjzVJzOCbl6YCCKHsc-25" target="EcMjzVJzOCbl6YCCKHsc-31">
          <mxGeometry relative="1" as="geometry" />
        </mxCell>
        <mxCell id="EcMjzVJzOCbl6YCCKHsc-25" value="4. Send prompt to LLM" style="rounded=1;whiteSpace=wrap;html=1;fillColor=#f5f5f5;fontColor=#333333;strokeColor=#666666;" vertex="1" parent="1">
          <mxGeometry x="72.5" y="585" width="190" height="50" as="geometry" />
        </mxCell>
        <mxCell id="EcMjzVJzOCbl6YCCKHsc-29" value="language" style="edgeStyle=orthogonalEdgeStyle;rounded=0;orthogonalLoop=1;jettySize=auto;html=1;exitX=0;exitY=0.75;exitDx=0;exitDy=0;entryX=1;entryY=0.75;entryDx=0;entryDy=0;fillColor=#f8cecc;strokeColor=#b85450;strokeWidth=2;" edge="1" parent="1" source="EcMjzVJzOCbl6YCCKHsc-27" target="EcMjzVJzOCbl6YCCKHsc-25">
          <mxGeometry relative="1" as="geometry">
            <Array as="points">
              <mxPoint x="330" y="673" />
              <mxPoint x="330" y="622" />
            </Array>
          </mxGeometry>
        </mxCell>
        <mxCell id="EcMjzVJzOCbl6YCCKHsc-27" value="LLM model&lt;div&gt;gpt-4o&lt;/div&gt;" style="shape=hexagon;perimeter=hexagonPerimeter2;whiteSpace=wrap;html=1;fixedSize=1;fillColor=#f8cecc;strokeColor=#b85450;" vertex="1" parent="1">
          <mxGeometry x="410" y="630" width="130" height="60" as="geometry" />
        </mxCell>
        <mxCell id="EcMjzVJzOCbl6YCCKHsc-31" value="5. Parse, format and send response to user" style="rounded=1;whiteSpace=wrap;html=1;fillColor=#f5f5f5;fontColor=#333333;strokeColor=#666666;" vertex="1" parent="1">
          <mxGeometry x="72.5" y="660" width="190" height="50" as="geometry" />
        </mxCell>
        <mxCell id="EcMjzVJzOCbl6YCCKHsc-33" value="HTTP&lt;div&gt;response&lt;/div&gt;" style="edgeStyle=orthogonalEdgeStyle;rounded=0;orthogonalLoop=1;jettySize=auto;html=1;entryX=0;entryY=1;entryDx=0;entryDy=0;entryPerimeter=0;fillColor=#f5f5f5;strokeColor=#666666;strokeWidth=2;" edge="1" parent="1">
          <mxGeometry relative="1" as="geometry">
            <mxPoint x="72.5" y="685.0344827586209" as="sourcePoint" />
            <mxPoint x="90" y="150" as="targetPoint" />
            <Array as="points">
              <mxPoint x="30" y="685" />
              <mxPoint x="30" y="150" />
            </Array>
          </mxGeometry>
        </mxCell>
        <mxCell id="EcMjzVJzOCbl6YCCKHsc-37" value="Files" style="edgeStyle=orthogonalEdgeStyle;rounded=0;orthogonalLoop=1;jettySize=auto;html=1;entryX=0;entryY=0.5;entryDx=0;entryDy=0;fillColor=#d5e8d4;strokeColor=#82b366;strokeWidth=2;" edge="1" parent="1" source="EcMjzVJzOCbl6YCCKHsc-34" target="EcMjzVJzOCbl6YCCKHsc-36">
          <mxGeometry relative="1" as="geometry" />
        </mxCell>
        <mxCell id="EcMjzVJzOCbl6YCCKHsc-34" value="Raw data&lt;br&gt;source" style="shape=cylinder3;whiteSpace=wrap;html=1;boundedLbl=1;backgroundOutline=1;size=15;fillColor=#d5e8d4;strokeColor=#82b366;" vertex="1" parent="1">
          <mxGeometry x="427.5" y="180" width="95" height="75" as="geometry" />
        </mxCell>
        <mxCell id="EcMjzVJzOCbl6YCCKHsc-50" value="" style="edgeStyle=orthogonalEdgeStyle;rounded=0;orthogonalLoop=1;jettySize=auto;html=1;" edge="1" parent="1" source="EcMjzVJzOCbl6YCCKHsc-36" target="EcMjzVJzOCbl6YCCKHsc-49">
          <mxGeometry relative="1" as="geometry" />
        </mxCell>
        <mxCell id="EcMjzVJzOCbl6YCCKHsc-36" value="RAG Pipeline&lt;div&gt;(cron job every N days)&lt;/div&gt;" style="rounded=0;whiteSpace=wrap;html=1;fillColor=#e1d5e7;strokeColor=#9673a6;" vertex="1" parent="1">
          <mxGeometry x="645" y="102.5" width="175" height="50" as="geometry" />
        </mxCell>
        <mxCell id="EcMjzVJzOCbl6YCCKHsc-41" value="" style="edgeStyle=orthogonalEdgeStyle;rounded=0;orthogonalLoop=1;jettySize=auto;html=1;" edge="1" parent="1" source="EcMjzVJzOCbl6YCCKHsc-38" target="EcMjzVJzOCbl6YCCKHsc-40">
          <mxGeometry relative="1" as="geometry" />
        </mxCell>
        <mxCell id="EcMjzVJzOCbl6YCCKHsc-38" value="2. Split data by batches using some algorhytms" style="rounded=1;whiteSpace=wrap;html=1;fillColor=#e1d5e7;strokeColor=#9673a6;" vertex="1" parent="1">
          <mxGeometry x="663.75" y="250" width="137.5" height="40" as="geometry" />
        </mxCell>
        <mxCell id="EcMjzVJzOCbl6YCCKHsc-48" value="" style="edgeStyle=orthogonalEdgeStyle;rounded=0;orthogonalLoop=1;jettySize=auto;html=1;" edge="1" parent="1" source="EcMjzVJzOCbl6YCCKHsc-40" target="EcMjzVJzOCbl6YCCKHsc-46">
          <mxGeometry relative="1" as="geometry" />
        </mxCell>
        <mxCell id="EcMjzVJzOCbl6YCCKHsc-55" value="language" style="edgeStyle=orthogonalEdgeStyle;rounded=0;orthogonalLoop=1;jettySize=auto;html=1;exitX=0;exitY=0.25;exitDx=0;exitDy=0;entryX=1;entryY=0.25;entryDx=0;entryDy=0;fillColor=#e1d5e7;strokeColor=#9673a6;strokeWidth=2;" edge="1" parent="1" source="EcMjzVJzOCbl6YCCKHsc-40" target="EcMjzVJzOCbl6YCCKHsc-15">
          <mxGeometry relative="1" as="geometry" />
        </mxCell>
        <mxCell id="EcMjzVJzOCbl6YCCKHsc-40" value="3. Make embeddings" style="rounded=1;whiteSpace=wrap;html=1;fillColor=#e1d5e7;strokeColor=#9673a6;" vertex="1" parent="1">
          <mxGeometry x="663.75" y="320" width="137.5" height="70" as="geometry" />
        </mxCell>
        <mxCell id="EcMjzVJzOCbl6YCCKHsc-46" value="4. Update vector DB" style="rounded=1;whiteSpace=wrap;html=1;fillColor=#e1d5e7;strokeColor=#9673a6;" vertex="1" parent="1">
          <mxGeometry x="663.75" y="492.5" width="137.5" height="30" as="geometry" />
        </mxCell>
        <mxCell id="EcMjzVJzOCbl6YCCKHsc-47" value="vectors&lt;div&gt;with&lt;/div&gt;&lt;div&gt;language&lt;br&gt;&lt;/div&gt;" style="edgeStyle=orthogonalEdgeStyle;rounded=0;orthogonalLoop=1;jettySize=auto;html=1;entryX=1;entryY=0.5;entryDx=0;entryDy=0;entryPerimeter=0;fillColor=#e1d5e7;strokeColor=#9673a6;strokeWidth=2;" edge="1" parent="1">
          <mxGeometry relative="1" as="geometry">
            <mxPoint x="664.75" y="507.5" as="sourcePoint" />
            <mxPoint x="523.5" y="507.5" as="targetPoint" />
          </mxGeometry>
        </mxCell>
        <mxCell id="EcMjzVJzOCbl6YCCKHsc-52" style="edgeStyle=orthogonalEdgeStyle;rounded=0;orthogonalLoop=1;jettySize=auto;html=1;entryX=0.5;entryY=0;entryDx=0;entryDy=0;" edge="1" parent="1" source="EcMjzVJzOCbl6YCCKHsc-49" target="EcMjzVJzOCbl6YCCKHsc-38">
          <mxGeometry relative="1" as="geometry" />
        </mxCell>
        <mxCell id="EcMjzVJzOCbl6YCCKHsc-49" value="1. Extract fresh data" style="rounded=1;whiteSpace=wrap;html=1;fillColor=#e1d5e7;strokeColor=#9673a6;" vertex="1" parent="1">
          <mxGeometry x="663.75" y="180" width="137.5" height="30" as="geometry" />
        </mxCell>
        <mxCell id="EcMjzVJzOCbl6YCCKHsc-59" value="Session 2&lt;div&gt;RAG Application&lt;/div&gt;" style="text;html=1;align=center;verticalAlign=middle;resizable=0;points=[];autosize=1;strokeColor=#b85450;fillColor=#f8cecc;fontSize=23;fontFamily=Garamond;gradientColor=#ea6b66;" vertex="1" parent="1">
          <mxGeometry x="335" y="18" width="180" height="70" as="geometry" />
        </mxCell>
      </root>
    </mxGraphModel>
  </diagram>
</mxfile>
